<svg xmlns="http://www.w3.org/2000/svg" width="224" height="96" viewBox="0 0 224 96">
    <g data-name="그룹 2">
        <path data-name="합치기 24" d="M-9013.181 13843.014v-17.621a1.5 1.5 0 0 1 1.5-1.5h11.591a1.5 1.5 0 0 1 1.5 1.5 1.5 1.5 0 0 1-1.5 1.5h-10.093v5.852h7.1a1.5 1.5 0 0 1 1.5 1.5 1.5 1.5 0 0 1-1.5 1.5h-7.1v7.278a1.5 1.5 0 0 1-1.5 1.5 1.5 1.5 0 0 1-1.498-1.509z" transform="translate(9014.18 -13785.78)" style="stroke:transparent;stroke-miterlimit:10"/>
        <g data-name="그룹 1">
            <path data-name="패스 2" d="M164.055 39.612a1.5 1.5 0 1 0-2.994 0V57.23a1.5 1.5 0 0 0 2.994 0z"/>
            <path data-name="패스 3" d="M162.558 58.73a1.5 1.5 0 1 1 0-2.994h11.82a1.5 1.5 0 0 1 0 2.994z"/>
            <path data-name="패스 4" d="M211.749 39.612a1.5 1.5 0 1 0-2.994 0V57.23a1.5 1.5 0 0 0 2.994 0z"/>
            <path data-name="패스 5" d="M216.415 49.919a5.9 5.9 0 1 0 0-11.8h-6.164a1.5 1.5 0 0 0 0 2.994h6.164a2.909 2.909 0 1 1 0 5.817h-6.164a1.5 1.5 0 0 0 0 2.994z"/>
            <path data-name="패스 6" d="M217.098 58.729a5.9 5.9 0 1 0 0-11.8h-6.846a1.5 1.5 0 0 0 0 2.994h6.846a2.909 2.909 0 1 1 0 5.817h-6.846a1.5 1.5 0 1 0 0 2.994z"/>
            <path data-name="패스 9" d="M59.279 41.087a1.5 1.5 0 1 0-2.994 0v16.148a1.5 1.5 0 1 0 2.994 0z"/>
            <path data-name="패스 10" d="M50.849 41.109a1.5 1.5 0 1 1 0-2.994h13.865a1.5 1.5 0 1 1 0 2.994z"/>
            <path data-name="패스 11" d="M104.875 39.612a1.5 1.5 0 1 0-2.994 0V57.23a1.5 1.5 0 0 0 2.994 0z"/>
            <path data-name="패스 12" d="M110.224 49.919a5.9 5.9 0 0 0 0-11.8h-6.846a1.5 1.5 0 1 0 0 2.994h6.846a2.909 2.909 0 0 1 0 5.817h-6.846a1.5 1.5 0 1 0 0 2.994z"/>
            <path data-name="패스 13" d="M111.566 48.262a1.5 1.5 0 0 0-2.581 1.517l4.828 8.211a1.5 1.5 0 1 0 2.581-1.518z"/>
            <path data-name="패스 14" d="M27.509 39.612a1.5 1.5 0 1 1-1.5-1.5 1.5 1.5 0 0 1 1.5 1.5"/>
            <path data-name="패스 15" d="M27.509 44.487a1.5 1.5 0 1 1-1.5-1.5 1.5 1.5 0 0 1 1.5 1.5"/>
            <path data-name="패스 16" d="M27.509 49.363a1.5 1.5 0 1 1-1.5-1.5 1.5 1.5 0 0 1 1.5 1.5"/>
            <path data-name="패스 17" d="M27.509 54.239a1.5 1.5 0 1 1-1.5-1.5 1.5 1.5 0 0 1 1.5 1.5"/>
            <path data-name="패스 18" d="M41.043 39.612a1.5 1.5 0 1 1-1.5-1.5 1.5 1.5 0 0 1 1.5 1.5"/>
            <path data-name="패스 19" d="M41.043 44.487a1.5 1.5 0 1 1-1.5-1.5 1.5 1.5 0 0 1 1.5 1.5"/>
            <path data-name="패스 20" d="M41.043 49.363a1.5 1.5 0 1 1-1.5-1.5 1.5 1.5 0 0 1 1.5 1.5"/>
            <path data-name="패스 21" d="M41.043 54.239a1.5 1.5 0 1 1-1.5-1.5 1.5 1.5 0 0 1 1.5 1.5"/>
            <path data-name="패스 22" d="M36.532 57.232a1.5 1.5 0 1 1-1.5-1.5 1.5 1.5 0 0 1 1.5 1.5"/>
            <path data-name="패스 23" d="M32.019 57.232a1.5 1.5 0 1 1-1.5-1.5 1.5 1.5 0 0 1 1.5 1.5"/>
            <path data-name="패스 24" d="M77.514 39.612a1.5 1.5 0 1 1-1.5-1.5 1.5 1.5 0 0 1 1.5 1.5"/>
            <path data-name="패스 25" d="M77.514 44.487a1.5 1.5 0 1 1-1.5-1.5 1.5 1.5 0 0 1 1.5 1.5"/>
            <path data-name="패스 26" d="M77.514 49.363a1.5 1.5 0 1 1-1.5-1.5 1.5 1.5 0 0 1 1.5 1.5"/>
            <path data-name="패스 27" d="M77.514 54.239a1.5 1.5 0 1 1-1.5-1.5 1.5 1.5 0 0 1 1.5 1.5"/>
            <path data-name="패스 28" d="M91.049 39.612a1.5 1.5 0 1 1-1.5-1.5 1.5 1.5 0 0 1 1.5 1.5"/>
            <path data-name="패스 29" d="M91.049 44.487a1.5 1.5 0 1 1-1.5-1.5 1.5 1.5 0 0 1 1.5 1.5"/>
            <path data-name="패스 30" d="M91.049 49.363a1.5 1.5 0 1 1-1.5-1.5 1.5 1.5 0 0 1 1.5 1.5"/>
            <path data-name="패스 31" d="M91.049 54.239a1.5 1.5 0 1 1-1.5-1.5 1.5 1.5 0 0 1 1.5 1.5"/>
            <path data-name="패스 32" d="M86.537 57.232a1.5 1.5 0 1 1-1.5-1.5 1.5 1.5 0 0 1 1.5 1.5"/>
            <path data-name="패스 33" d="M82.025 57.232a1.5 1.5 0 1 1-1.5-1.5 1.5 1.5 0 0 1 1.5 1.5"/>
            <path data-name="패스 34" d="M193.167 39.498a1.5 1.5 0 1 1-1.5-1.5 1.5 1.5 0 0 1 1.5 1.5"/>
            <path data-name="패스 35" d="M190.654 45.41a1.5 1.5 0 1 1-1.5-1.5 1.5 1.5 0 0 1 1.5 1.5"/>
            <path data-name="패스 36" d="M188.141 51.321a1.5 1.5 0 1 1-1.5-1.5 1.5 1.5 0 0 1 1.5 1.5"/>
            <path data-name="패스 37" d="M193.167 51.321a1.5 1.5 0 1 1-1.5-1.5 1.5 1.5 0 0 1 1.5 1.5"/>
            <path data-name="패스 38" d="M185.629 57.232a1.5 1.5 0 1 1-1.5-1.5 1.5 1.5 0 0 1 1.5 1.5"/>
            <path data-name="패스 39" d="M192.686 45.41a1.5 1.5 0 1 0 1.5-1.5 1.5 1.5 0 0 0-1.5 1.5"/>
            <path data-name="패스 40" d="M195.199 51.321a1.5 1.5 0 1 0 1.5-1.5 1.5 1.5 0 0 0-1.5 1.5"/>
            <path data-name="패스 41" d="M197.712 57.232a1.5 1.5 0 1 0 1.5-1.5 1.5 1.5 0 0 0-1.5 1.5"/>
            <path data-name="패스 42" d="M128.855 39.612a1.5 1.5 0 1 1-1.5-1.5 1.5 1.5 0 0 1 1.5 1.5"/>
            <path data-name="패스 43" d="M128.855 45.485a1.5 1.5 0 1 1-1.5-1.5 1.5 1.5 0 0 1 1.5 1.5"/>
            <path data-name="패스 44" d="M128.855 51.359a1.5 1.5 0 1 1-1.5-1.5 1.5 1.5 0 0 1 1.5 1.5"/>
            <path data-name="패스 45" d="M128.855 57.232a1.5 1.5 0 1 1-1.5-1.5 1.5 1.5 0 0 1 1.5 1.5"/>
            <path data-name="패스 46" d="M134.651 39.612a1.5 1.5 0 1 1-1.5-1.5 1.5 1.5 0 0 1 1.5 1.5"/>
            <path data-name="패스 47" d="M134.651 48.456a1.5 1.5 0 1 1-1.5-1.5 1.5 1.5 0 0 1 1.5 1.5"/>
            <path data-name="패스 48" d="M134.651 57.232a1.5 1.5 0 1 1-1.5-1.5 1.5 1.5 0 0 1 1.5 1.5"/>
            <path data-name="패스 49" d="M140.447 39.612a1.5 1.5 0 1 1-1.5-1.5 1.5 1.5 0 0 1 1.5 1.5"/>
            <path data-name="패스 50" d="M140.447 57.232a1.5 1.5 0 1 1-1.5-1.5 1.5 1.5 0 0 1 1.5 1.5"/>
        </g>
    </g>
</svg>
