<svg id="symbol" xmlns="http://www.w3.org/2000/svg" width="206" height="96" viewBox="0 0 206 96">
  <defs>
    <style>
      .cls-1 {
        fill: #fff;
        opacity: 0;
      }

      .cls-2 {
        fill: #231f20;
      }

      .cls-3 {
        fill: #ff540f;
      }

      .cls-4 {
        fill: #582e91;
      }
    </style>
  </defs>
  <rect id="사각형_1031" data-name="사각형 1031" class="cls-1" width="206" height="96"/>
  <g id="그룹_1389" data-name="그룹 1389" transform="translate(-572.782 -148.846)">
    <path id="패스_1536" data-name="패스 1536" class="cls-2" d="M637.8,177.259a11.5,11.5,0,1,1,11.487,11.519A11.393,11.393,0,0,1,637.8,177.259m18.639,0a7.153,7.153,0,1,0-7.152,7.247,7.019,7.019,0,0,0,7.152-7.247" transform="translate(27.4 3.488)"/>
    <path id="패스_1537" data-name="패스 1537" class="cls-2" d="M664.539,170.218v4.556c-2.121-.252-4.81.7-4.81,4.018v7.564h-4.082V170.534h4.082v2.722a4.868,4.868,0,0,1,4.81-3.038" transform="translate(35.287 5.466)"/>
    <path id="패스_1538" data-name="패스 1538" class="cls-2" d="M679.492,170.573V186.4h-4.083v-1.867a6.294,6.294,0,0,1-5.157,2.31c-4.209,0-7.691-3.639-7.691-8.354s3.482-8.354,7.691-8.354a6.294,6.294,0,0,1,5.157,2.31v-1.867Zm-4.083,7.911a4.383,4.383,0,1,0-4.4,4.462,4.253,4.253,0,0,0,4.4-4.462" transform="translate(38.342 5.427)"/>
    <path id="패스_1539" data-name="패스 1539" class="cls-2" d="M691.423,176.68V186.4h-4.082v-9.209a2.945,2.945,0,0,0-3.133-3.259c-1.994,0-3.481,1.171-3.481,3.923V186.4h-4.083V170.573h4.083v1.772a5.377,5.377,0,0,1,4.715-2.215c3.354,0,5.981,2.342,5.981,6.55" transform="translate(44.564 5.427)"/>
    <path id="패스_1540" data-name="패스 1540" class="cls-2" d="M705.437,170.573v15.063c0,5.189-4.083,7.532-8.259,7.532-3.387,0-6.108-1.3-7.5-3.861l3.481-1.994c.665,1.234,1.709,2.216,4.147,2.216,2.562,0,4.145-1.393,4.145-3.893v-1.709a6.05,6.05,0,0,1-5.065,2.4,8.1,8.1,0,0,1,0-16.2,6.046,6.046,0,0,1,5.065,2.4v-1.962Zm-3.987,7.658a4.432,4.432,0,1,0-4.432,4.336,4.225,4.225,0,0,0,4.432-4.336" transform="translate(49.806 5.427)"/>
    <path id="패스_1541" data-name="패스 1541" class="cls-2" d="M710.759,183.135a4.391,4.391,0,0,0,3.545-1.582l3.29,1.9a8.006,8.006,0,0,1-6.9,3.385c-5.318,0-8.671-3.639-8.671-8.354a8.079,8.079,0,0,1,8.354-8.354c4.683,0,8.005,3.7,8.005,8.354a9.55,9.55,0,0,1-.157,1.677H706.3c.569,2.089,2.31,2.974,4.461,2.974M714.3,177a3.838,3.838,0,0,0-3.925-3.2,3.944,3.944,0,0,0-4.145,3.2Z" transform="translate(55.779 5.427)"/>
    <path id="패스_1542" data-name="패스 1542" class="cls-3" d="M656.076,196a7.418,7.418,0,0,1-7.564,7.437h-3.89v7.277h-4.369V188.563h8.259A7.418,7.418,0,0,1,656.076,196m-4.336,0a3.194,3.194,0,0,0-3.228-3.354h-3.89v6.707h3.89A3.212,3.212,0,0,0,651.74,196" transform="translate(28.485 13.572)"/>
    <rect id="사각형_1062" data-name="사각형 1062" class="cls-3" width="4.082" height="23.1" transform="translate(686.456 201.186)"/>
    <path id="패스_1543" data-name="패스 1543" class="cls-3" d="M674.077,193.089v15.823H670v-1.867a6.3,6.3,0,0,1-5.159,2.31c-4.209,0-7.691-3.639-7.691-8.354s3.482-8.354,7.691-8.354a6.3,6.3,0,0,1,5.159,2.31v-1.867ZM670,201a4.384,4.384,0,1,0-4.4,4.462A4.254,4.254,0,0,0,670,201" transform="translate(35.95 15.376)"/>
    <path id="패스_1544" data-name="패스 1544" class="cls-3" d="M686.008,199.2v9.715h-4.082V199.7a2.945,2.945,0,0,0-3.133-3.259c-1.994,0-3.481,1.171-3.481,3.923v8.544h-4.082V193.089h4.082v1.772a5.378,5.378,0,0,1,4.715-2.216c3.355,0,5.981,2.343,5.981,6.552" transform="translate(42.172 15.375)"/>
    <path id="패스_1545" data-name="패스 1545" class="cls-3" d="M691.826,205.652a4.39,4.39,0,0,0,3.545-1.583l3.29,1.9a8.005,8.005,0,0,1-6.9,3.385c-5.316,0-8.67-3.639-8.67-8.354a8.08,8.08,0,0,1,8.355-8.355c4.683,0,8.005,3.7,8.005,8.355a9.41,9.41,0,0,1-.159,1.677H687.364c.571,2.089,2.311,2.975,4.463,2.975m3.545-6.139a3.84,3.84,0,0,0-3.923-3.2,3.949,3.949,0,0,0-4.148,3.2Z" transform="translate(47.413 15.375)"/>
    <path id="패스_1546" data-name="패스 1546" class="cls-3" d="M701.98,198.234v6.583c0,1.709,1.234,1.74,3.576,1.613v3.7c-5.728.633-7.659-1.045-7.659-5.316v-6.583h-2.754v-3.923H697.9v-3.2l4.083-1.234v4.431h3.576v3.923Z" transform="translate(52.738 14.154)"/>
    <path id="패스_1547" data-name="패스 1547" class="cls-3" d="M653.351,191.97a39.025,39.025,0,0,0-75.526-8.061l-.006.014-.022.059a.318.318,0,0,0-.013.035l0,.007a6.25,6.25,0,0,0,.373,4.905c1.76,3.719,6.965,7.535,13.348,10.942A23.267,23.267,0,0,0,631.5,213.045c1.552.223,3.045.4,4.467.512s2.758.173,3.991.173c.753,0,1.465-.025,2.144-.066a32.84,32.84,0,0,1-2.02,2.927,32.239,32.239,0,0,1-45.181,5.692,31.9,31.9,0,0,1-12.312-22.409,3.409,3.409,0,1,0-6.787.643,39.026,39.026,0,0,0,69.664,20.253,38.759,38.759,0,0,0,7.89-28.8m-68.791-5.525c1.035-.343,3.636-.829,9.474-.283a23.416,23.416,0,0,0-2.194,6.076c-4.594-2.75-6.583-4.772-7.28-5.793M630.1,202.573a16.553,16.553,0,0,1-1.469,3.074,123.36,123.36,0,0,1-16.039-4.249,125.553,125.553,0,0,1-14.384-5.767,16.593,16.593,0,0,1,.9-4.115A16.453,16.453,0,1,1,630.1,202.573m-8.448,9.339a16.455,16.455,0,0,1-21.916-7.819c-.058-.121-.108-.245-.163-.366,3.651,1.572,7.379,2.976,10.858,4.138,4.18,1.394,8.321,2.569,12.273,3.495-.345.195-.694.381-1.053.552m14.127-5.221c.271-.594.519-1.2.741-1.827a23.4,23.4,0,0,0,1.086-4.285c4.992,2.859,6.663,4.889,7.2,5.786-1.373.557-4.5.761-9.03.326m1.707-13.9a23.416,23.416,0,0,0-1.854-5.713,23.3,23.3,0,0,0-36.749-7.2,63.405,63.405,0,0,0-11.124-.756q.681-1.032,1.442-2.017a32.2,32.2,0,0,1,57.588,21.473,49.512,49.512,0,0,0-9.3-5.786" transform="translate(0)"/>
    <path id="패스_1548" data-name="패스 1548" class="cls-4" d="M577.1,190.956a3.408,3.408,0,1,1,4.782-.6,3.41,3.41,0,0,1-4.782.6" transform="translate(0 11.933)"/>
  </g>
</svg>
